<svg xmlns="http://www.w3.org/2000/svg" width="40" height="40" viewBox="0 0 40 40" fill="none">
  <path fill-rule="evenodd" clip-rule="evenodd" d="M12.344 10.464L11.524 13H9C7.67392 13 6.40215 13.5268 5.46447 14.4645C4.52678 15.4021 4 16.6739 4 18V30C4 31.3261 4.52678 32.5979 5.46447 33.5355C6.40215 34.4732 7.67392 35 9 35H31C32.3261 35 33.5978 34.4732 34.5355 33.5355C35.4732 32.5979 36 31.3261 36 30V18C36 16.6739 35.4732 15.4021 34.5355 14.4645C33.5978 13.5268 32.3261 13 31 13H28.474L27.656 10.464C27.331 9.45732 26.6952 8.57964 25.8398 7.9572C24.9845 7.33476 23.9538 6.99962 22.896 7H17.104C16.0462 6.99962 15.0155 7.33476 14.1602 7.9572C13.3048 8.57964 12.669 9.45732 12.344 10.464ZM9 15H12.98L14.246 11.08C14.4407 10.4757 14.8221 9.94874 15.3353 9.57497C15.8485 9.2012 16.4671 8.99988 17.102 9H22.898C23.5326 9.00031 24.1507 9.20182 24.6635 9.57556C25.1763 9.9493 25.5574 10.476 25.752 11.08L27.018 15H31C31.7956 15 32.5587 15.3161 33.1213 15.8787C33.6839 16.4413 34 17.2043 34 18V30C34 30.7956 33.6839 31.5587 33.1213 32.1213C32.5587 32.6839 31.7956 33 31 33H9C8.20435 33 7.44129 32.6839 6.87868 32.1213C6.31607 31.5587 6 30.7956 6 30V18C6 17.2043 6.31607 16.4413 6.87868 15.8787C7.44129 15.3161 8.20435 15 9 15Z" fill="currentColor" />
  <path fill-rule="evenodd" clip-rule="evenodd" d="M14 23C14 24.5913 14.6321 26.1174 15.7574 27.2426C16.8826 28.3679 18.4087 29 20 29C21.5913 29 23.1174 28.3679 24.2426 27.2426C25.3679 26.1174 26 24.5913 26 23C26 21.4087 25.3679 19.8826 24.2426 18.7574C23.1174 17.6321 21.5913 17 20 17C18.4087 17 16.8826 17.6321 15.7574 18.7574C14.6321 19.8826 14 21.4087 14 23ZM24 23C24 24.0609 23.5786 25.0783 22.8284 25.8284C22.0783 26.5786 21.0609 27 20 27C18.9391 27 17.9217 26.5786 17.1716 25.8284C16.4214 25.0783 16 24.0609 16 23C16 21.9391 16.4214 20.9217 17.1716 20.1716C17.9217 19.4214 18.9391 19 20 19C21.0609 19 22.0783 19.4214 22.8284 20.1716C23.5786 20.9217 24 21.9391 24 23Z" fill="currentColor" />
</svg>